<svg width="15" height="23" viewBox="0 0 15 23" fill="none" xmlns="http://www.w3.org/2000/svg">
<path d="M13.8315 9.86426L14.5748 10.9482C14.8895 11.4072 14.8895 12.1494 14.5748 12.6035L8.0692 22.0957C7.75447 22.5547 7.24554 22.5547 6.93416 22.0957L0.425228 12.6035C0.110495 12.1445 0.110495 11.4023 0.425228 10.9482L1.16853 9.86426C1.48661 9.40039 2.00558 9.41016 2.31697 9.88379L6.16072 15.7676V1.73438C6.16072 1.08496 6.51898 0.5625 6.96429 0.5625H8.03572C8.48103 0.5625 8.83929 1.08496 8.83929 1.73438V15.7676L12.683 9.88379C12.9944 9.40527 13.5134 9.39551 13.8315 9.86426Z" fill="black"/>
</svg>
