<svg width="25" height="25" viewBox="0 0 25 25" fill="none" xmlns="http://www.w3.org/2000/svg">
<path d="M24.2866 17.6671L18.8179 15.3234C18.5842 15.2238 18.3246 15.2028 18.078 15.2636C17.8315 15.3243 17.6113 15.4636 17.4507 15.6603L15.0288 18.6192C11.2279 16.8272 8.16904 13.7683 6.37695 9.96739L9.33594 7.54552C9.53304 7.3852 9.67255 7.16504 9.73335 6.91834C9.79414 6.67165 9.7729 6.41187 9.67285 6.17833L7.3291 0.709579C7.21929 0.457826 7.02508 0.252277 6.77996 0.128377C6.53483 0.00447761 6.25416 -0.0300076 5.98633 0.0308683L0.908203 1.20274C0.649985 1.26237 0.419602 1.40776 0.254656 1.61519C0.0897096 1.82261 -5.94829e-05 2.07982 2.95713e-08 2.34483C2.95713e-08 14.8692 10.1514 25.0011 22.6562 25.0011C22.9213 25.0013 23.1787 24.9115 23.3862 24.7466C23.5937 24.5816 23.7392 24.3512 23.7988 24.0929L24.9707 19.0148C25.0312 18.7456 24.996 18.4638 24.8711 18.2179C24.7463 17.9719 24.5396 17.7771 24.2866 17.6671Z" fill="white"/>
</svg>
