<svg width="25" height="13" viewBox="0 0 25 13" fill="none" xmlns="http://www.w3.org/2000/svg">
<path d="M1.67969 2.2904H23.7344C24.1211 2.2904 24.4375 1.98572 24.4375 1.599C24.4375 1.224 24.1211 0.919312 23.7344 0.919312H1.67969C1.29297 0.919312 0.988281 1.224 0.988281 1.599C0.988281 1.98572 1.29297 2.2904 1.67969 2.2904ZM1.67969 7.599H23.7344C24.1211 7.599 24.4375 7.29431 24.4375 6.90759C24.4375 6.52087 24.1211 6.21619 23.7344 6.21619H1.67969C1.29297 6.21619 0.988281 6.52087 0.988281 6.90759C0.988281 7.29431 1.29297 7.599 1.67969 7.599ZM1.67969 12.8958H23.7344C24.1211 12.8958 24.4375 12.5912 24.4375 12.2044C24.4375 11.8177 24.1211 11.513 23.7344 11.513H1.67969C1.29297 11.513 0.988281 11.8177 0.988281 12.2044C0.988281 12.5912 1.29297 12.8958 1.67969 12.8958Z" fill="white"/>
</svg>
