<svg width="47" height="21" viewBox="0 0 47 21" fill="none" xmlns="http://www.w3.org/2000/svg">
<path d="M43.0931 12.3848L46.9505 4.31767C47.229 3.73521 46.2975 3.18056 45.0409 3.18056H12.9909L12.243 1.44263C12.0566 1.00945 11.2547 0.698364 10.3244 0.698364H1.95833C0.876762 0.698364 0 1.1151 0 1.62919V2.24973C0 2.76382 0.876762 3.18056 1.95833 3.18056H7.66059L13.3926 16.5004C12.0213 16.8753 11.0972 17.5781 11.0972 18.384C11.0972 19.5835 13.143 20.5559 15.6667 20.5559C18.1903 20.5559 20.2361 19.5835 20.2361 18.384C20.2361 17.7761 19.7101 17.2269 18.8633 16.8326H35.9699C35.1233 17.2269 34.5972 17.7761 34.5972 18.384C34.5972 19.5835 36.643 20.5559 39.1667 20.5559C41.6903 20.5559 43.7361 19.5835 43.7361 18.384C43.7361 17.5241 42.6845 16.781 41.1594 16.4291L41.6095 15.4875C41.888 14.9051 40.9566 14.3504 39.6999 14.3504H17.7977L17.2637 13.1093H41.1835C42.0979 13.1093 42.8905 12.8086 43.0931 12.3848Z" fill="black"/>
</svg>
